<svg width="87" height="139" viewBox="0 0 87 139" fill="none" xmlns="http://www.w3.org/2000/svg">
<line x1="43" y1="127" x2="43" y2="31" stroke="#98674D" stroke-width="24" stroke-linecap="round"/>
<path fill-rule="evenodd" clip-rule="evenodd" d="M18.3923 2.21541C12.6528 -1.0983 5.3137 0.868205 1.99999 6.60772C-1.31372 12.3472 0.652781 19.6863 6.39229 23L19.5692 30.6077L6.39229 38.2154C0.652781 41.5291 -1.31372 48.8682 1.99999 54.6077C5.3137 60.3472 12.6528 62.3137 18.3923 59L43.5692 44.4641L68.7461 59C74.4856 62.3137 81.8247 60.3472 85.1384 54.6077C88.4521 48.8682 86.4856 41.5291 80.7461 38.2154L67.5692 30.6077L80.7461 23C86.4856 19.6863 88.4521 12.3472 85.1384 6.60772C81.8247 0.868207 74.4856 -1.0983 68.7461 2.21541L43.5692 16.7513L18.3923 2.21541Z" fill="#40A060"/>
</svg>
