<svg width="33" height="33" viewBox="0 0 33 33" fill="none" xmlns="http://www.w3.org/2000/svg">
<path d="M2.46348 30.0239C-0.496207 27.0642 -0.496207 22.2656 2.46348 19.3059L19.306 2.46341C22.2657 -0.496268 27.0643 -0.496268 30.024 2.46341C32.9836 5.4231 32.9836 10.2217 30.024 13.1814L13.1814 30.0239C10.2218 32.9836 5.42316 32.9836 2.46348 30.0239Z" fill="#98674D"/>
<path d="M13.1814 19.3059C16.1411 22.2656 16.1411 27.0642 13.1814 30.0239C10.2218 32.9836 5.42316 32.9836 2.46348 30.0239C-0.496207 27.0642 -0.496207 22.2656 2.46348 19.3059C5.42316 16.3462 10.2218 16.3462 13.1814 19.3059Z" fill="#D9BDA9"/>
<path fill-rule="evenodd" clip-rule="evenodd" d="M12.7221 29.5645C15.4281 26.8586 15.4281 22.4713 12.7221 19.7653C10.0161 17.0593 5.62881 17.0593 2.92282 19.7653C0.216821 22.4713 0.216821 26.8586 2.92282 29.5645C5.62881 32.2705 10.0161 32.2705 12.7221 29.5645ZM13.1814 30.0239C16.1411 27.0642 16.1411 22.2656 13.1814 19.3059C10.2218 16.3462 5.42316 16.3462 2.46348 19.3059C-0.496207 22.2656 -0.496207 27.0642 2.46348 30.0239C5.42316 32.9836 10.2218 32.9836 13.1814 30.0239Z" fill="#98674D"/>
<path d="M9.35359 15.4781C9.18447 15.309 9.18447 15.0348 9.35359 14.8656L16.7031 7.51617C16.8722 7.34704 17.1464 7.34704 17.3155 7.51617C17.4846 7.68529 17.4846 7.9595 17.3155 8.12862L9.96605 15.4781C9.79692 15.6472 9.52272 15.6472 9.35359 15.4781Z" fill="#773D2B" fill-opacity="0.5"/>
<path d="M19.1529 9.96599C18.9837 9.79686 18.9837 9.52266 19.1529 9.35353L25.2774 3.22898C25.4465 3.05986 25.7208 3.05986 25.8899 3.22898C26.059 3.39811 26.059 3.67231 25.8899 3.84144L19.7653 9.96599C19.5962 10.1351 19.322 10.1351 19.1529 9.96599Z" fill="#773D2B" fill-opacity="0.5"/>
<path d="M22.5214 15.7843C22.3523 15.6152 22.3523 15.341 22.5214 15.1719L26.8086 10.8847C26.9777 10.7155 27.2519 10.7155 27.421 10.8847C27.5901 11.0538 27.5901 11.328 27.421 11.4971L23.1338 15.7843C22.9647 15.9534 22.6905 15.9534 22.5214 15.7843Z" fill="#773D2B" fill-opacity="0.5"/>
<path d="M15.0494 18.7241C14.8803 18.555 14.8803 18.2808 15.0494 18.1116L23.6238 9.53727C23.7929 9.36814 24.0671 9.36814 24.2362 9.53727C24.4054 9.70639 24.4054 9.9806 24.2362 10.1497L15.6619 18.7241C15.4928 18.8932 15.2185 18.8932 15.0494 18.7241Z" fill="#773D2B" fill-opacity="0.5"/>
<path fill-rule="evenodd" clip-rule="evenodd" d="M9.65982 26.5023C10.6746 25.4875 10.6746 23.8423 9.65982 22.8275C8.64507 21.8128 6.99984 21.8128 5.98509 22.8275C4.97034 23.8423 4.97034 25.4875 5.98509 26.5023C6.99984 27.517 8.64507 27.517 9.65982 26.5023ZM10.1192 26.9616C11.3876 25.6932 11.3876 23.6366 10.1192 22.3682C8.85073 21.0998 6.79419 21.0998 5.52575 22.3682C4.25732 23.6366 4.25732 25.6932 5.52575 26.9616C6.79419 28.23 8.85073 28.23 10.1192 26.9616Z" fill="#98674D" fill-opacity="0.5"/>
<path fill-rule="evenodd" clip-rule="evenodd" d="M11.191 28.0334C13.0513 26.173 13.0513 23.1568 11.191 21.2964C9.33059 19.436 6.31433 19.436 4.45396 21.2964C2.59358 23.1568 2.59358 26.173 4.45396 28.0334C6.31433 29.8938 9.33059 29.8938 11.191 28.0334ZM11.6503 28.4927C13.7644 26.3787 13.7644 22.9511 11.6503 20.8371C9.53624 18.723 6.10867 18.723 3.99461 20.8371C1.88055 22.9511 1.88055 26.3787 3.99461 28.4927C6.10867 30.6068 9.53624 30.6068 11.6503 28.4927Z" fill="#98674D" fill-opacity="0.5"/>
</svg>
