<svg width="32" height="32" viewBox="0 0 32 32" fill="none" xmlns="http://www.w3.org/2000/svg">
<path d="M0 22.5L22.5 1.52588e-05L32 9.50002L9.5 32L0 22.5Z" fill="#98674D"/>
<path d="M0 22.5L22.5 1.52588e-05L31.25 8.75002L8.75 31.25L0 22.5Z" fill="#D9BDA9"/>
<path fill-rule="evenodd" clip-rule="evenodd" d="M22.5 0.750015L0.75 22.5L8.75 30.5L30.5 8.75002L22.5 0.750015ZM0 22.5L8.75 31.25L31.25 8.75002L22.5 1.52588e-05L0 22.5Z" fill="#98674D"/>
<path d="M27 10.5C26.8619 10.3619 26.8619 10.1381 27 10L29.75 7.25002L30.25 7.75002L27.5 10.5C27.3619 10.6381 27.1381 10.6381 27 10.5Z" fill="#98674D" fill-opacity="0.5"/>
<path d="M4.75 27.25L9.75 22.25C9.88807 22.1119 10.1119 22.1119 10.25 22.25C10.3881 22.3881 10.3881 22.6119 10.25 22.75L5.25 27.75L4.75 27.25Z" fill="#98674D" fill-opacity="0.5"/>
<path d="M2.5 25L9.8 17.7C9.93807 17.5619 10.1619 17.5619 10.3 17.7C10.4381 17.8381 10.4381 18.0619 10.3 18.2L3 25.5L2.5 25Z" fill="#98674D" fill-opacity="0.5"/>
<path d="M13 12.5C12.8619 12.3619 12.8619 12.1381 13 12L23.75 1.25002L24.25 1.75002L13.5 12.5C13.3619 12.6381 13.1381 12.6381 13 12.5Z" fill="#98674D" fill-opacity="0.5"/>
<path d="M14.75 17.75C14.6119 17.6119 14.6119 17.3881 14.75 17.25L22.25 9.75002C22.3881 9.61194 22.6119 9.61194 22.75 9.75002C22.8881 9.88809 22.8881 10.1119 22.75 10.25L15.25 17.75C15.1119 17.8881 14.8881 17.8881 14.75 17.75Z" fill="#98674D" fill-opacity="0.5"/>
<path d="M20 8.50002C19.8619 8.36194 19.8619 8.13809 20 8.00002L25.25 2.75002L25.75 3.25002L20.5 8.50002C20.3619 8.63809 20.1381 8.63809 20 8.50002Z" fill="#98674D" fill-opacity="0.5"/>
</svg>
