<svg width="46" height="42" viewBox="0 0 46 42" fill="none" xmlns="http://www.w3.org/2000/svg">
<line x1="32" y1="26" x2="32" y2="38" stroke="#B84848" stroke-width="8" stroke-linecap="round"/>
<line x1="32" y1="26" x2="32" y2="38" stroke="#B84848" stroke-width="8" stroke-linecap="round"/>
<line x1="32" y1="26" x2="32" y2="38" stroke="#B84848" stroke-width="8" stroke-linecap="round"/>
<line x1="13" y1="26" x2="13" y2="38" stroke="#B84848" stroke-width="8" stroke-linecap="round"/>
<line x1="13" y1="26" x2="13" y2="38" stroke="#B84848" stroke-width="8" stroke-linecap="round"/>
<line x1="13" y1="26" x2="13" y2="38" stroke="#B84848" stroke-width="8" stroke-linecap="round"/>
<line x1="15" y1="17.0001" x2="30" y2="17.0001" stroke="#EC5959" stroke-width="30" stroke-linecap="round"/>
<circle cx="15.5" cy="17.5" r="6.5" fill="white"/>
<circle cx="29.5" cy="17.5" r="6.5" fill="white"/>
<circle cx="15.5" cy="17.5" r="3" fill="black"/>
<circle cx="29.5" cy="17.5" r="3" fill="black"/>
<path d="M41.1816 2C40.3041 2.83162 39.4927 4.42773 40.3924 5.45085C40.9569 6.09276 41.4791 6.23736 42.3091 6.57265C42.8079 6.77419 44.4394 7 43.8874 7" stroke="#B84848" stroke-width="3" stroke-linecap="round"/>
<path d="M44 12.0018C43.9776 11.7884 42.6737 11 42.4211 11C41.5392 11 41.4237 11.2924 40.7485 11.7513C40.372 12.0073 40.2105 13.2688 40.2105 13.7549C40.2105 14.234 40.2878 16.7855 40 15.7585" stroke="#B84848" stroke-width="3" stroke-linecap="round"/>
<path d="M35 2C35 3.13309 34.8217 4.25851 34.75 5.33333C34.6544 6.76742 32.1436 6.61881 31 7" stroke="#B84848" stroke-width="3" stroke-linecap="round"/>
<path d="M31 11.2211C32.2891 11.2211 33.8337 10.6484 35.0709 11.3464C36.3539 12.0702 35.9344 17.2212 35.9344 15.7308" stroke="#B84848" stroke-width="3" stroke-linecap="round"/>
<line x1="19.6213" y1="8" x2="22.5" y2="10.8787" stroke="black" stroke-width="3" stroke-linecap="round"/>
<line x1="22.5" y1="10.8787" x2="25.3787" y2="8" stroke="black" stroke-width="3" stroke-linecap="round"/>
</svg>
